<svg width="30" height="30" viewBox="0 0 30 30" fill="currentColor" xmlns="http://www.w3.org/2000/svg">
<path d="M29.8889 14.645C29.6526 14.3012 23.975 6.24982 14.9999 6.24982C7.29854 6.24982 0.43593 14.255 0.147175 14.5962C-0.0490584 14.8287 -0.0490584 15.17 0.147175 15.4037C0.43593 15.745 7.29854 23.7501 14.9999 23.7501C22.7013 23.7501 29.5639 15.745 29.8526 15.4037C30.0339 15.1887 30.0501 14.8775 29.8889 14.645ZM14.9999 22.5001C8.8261 22.5001 2.95597 16.6125 1.46473 15C2.95351 13.3862 8.81737 7.49988 14.9999 7.49988C22.2238 7.49988 27.3226 13.3787 28.5676 14.9662C27.1301 16.5275 21.2263 22.5001 14.9999 22.5001Z" fill="currentColor"/>
<path d="M14.9998 9.99994C12.2423 9.99994 9.99976 12.2425 9.99976 15C9.99976 17.7575 12.2423 20.0001 14.9998 20.0001C17.7574 20.0001 19.9999 17.7575 19.9999 15C19.9999 12.2425 17.7574 9.99994 14.9998 9.99994ZM14.9998 18.7501C12.9323 18.7501 11.2498 17.0676 11.2498 15.0001C11.2498 12.9325 12.9323 11.25 14.9998 11.25C17.0673 11.25 18.7499 12.9325 18.7499 15.0001C18.7499 17.0676 17.0673 18.7501 14.9998 18.7501Z" fill="currentColor"/>
</svg>
